<svg id="my-svg" width="100%" xmlns="http://www.w3.org/2000/svg" xmlns:xlink="http://www.w3.org/1999/xlink" class="flowchart" style="max-width: 392px; background-color: white;" viewBox="4 4 392 479" role="graphics-document document" aria-roledescription="flowchart-elk"><style>#my-svg{font-family:"trebuchet ms",verdana,arial,sans-serif;font-size:16px;fill:#333;}@keyframes edge-animation-frame{from{stroke-dashoffset:0;}}@keyframes dash{to{stroke-dashoffset:0;}}#my-svg .edge-animation-slow{stroke-dasharray:9,5!important;stroke-dashoffset:900;animation:dash 50s linear infinite;stroke-linecap:round;}#my-svg .edge-animation-fast{stroke-dasharray:9,5!important;stroke-dashoffset:900;animation:dash 20s linear infinite;stroke-linecap:round;}#my-svg .error-icon{fill:#552222;}#my-svg .error-text{fill:#552222;stroke:#552222;}#my-svg .edge-thickness-normal{stroke-width:1px;}#my-svg .edge-thickness-thick{stroke-width:3.5px;}#my-svg .edge-pattern-solid{stroke-dasharray:0;}#my-svg .edge-thickness-invisible{stroke-width:0;fill:none;}#my-svg .edge-pattern-dashed{stroke-dasharray:3;}#my-svg .edge-pattern-dotted{stroke-dasharray:2;}#my-svg .marker{fill:#333333;stroke:#333333;}#my-svg .marker.cross{stroke:#333333;}#my-svg svg{font-family:"trebuchet ms",verdana,arial,sans-serif;font-size:16px;}#my-svg p{margin:0;}#my-svg .label{font-family:"trebuchet ms",verdana,arial,sans-serif;color:#333;}#my-svg .cluster-label text{fill:#333;}#my-svg .cluster-label span{color:#333;}#my-svg .cluster-label span p{background-color:transparent;}#my-svg .label text,#my-svg span{fill:#333;color:#333;}#my-svg .node rect,#my-svg .node circle,#my-svg .node ellipse,#my-svg .node polygon,#my-svg .node path{fill:#ECECFF;stroke:#9370DB;stroke-width:1px;}#my-svg .rough-node .label text,#my-svg .node .label text,#my-svg .image-shape .label,#my-svg .icon-shape .label{text-anchor:middle;}#my-svg .node .katex path{fill:#000;stroke:#000;stroke-width:1px;}#my-svg .rough-node .label,#my-svg .node .label,#my-svg .image-shape .label,#my-svg .icon-shape .label{text-align:center;}#my-svg .node.clickable{cursor:pointer;}#my-svg .root .anchor path{fill:#333333!important;stroke-width:0;stroke:#333333;}#my-svg .arrowheadPath{fill:#333333;}#my-svg .edgePath .path{stroke:#333333;stroke-width:1px;}#my-svg .flowchart-link{stroke:#333333;fill:none;}#my-svg .edgeLabel{background-color:rgba(232,232,232, 0.8);text-align:center;}#my-svg .edgeLabel p{background-color:rgba(232,232,232, 0.8);}#my-svg .edgeLabel rect{opacity:0.5;background-color:rgba(232,232,232, 0.8);fill:rgba(232,232,232, 0.8);}#my-svg .labelBkg{background-color:rgba(232, 232, 232, 0.5);}#my-svg .cluster rect{fill:#ffffde;stroke:#aaaa33;stroke-width:1px;}#my-svg .cluster text{fill:#333;}#my-svg .cluster span{color:#333;}#my-svg div.mermaidTooltip{position:absolute;text-align:center;max-width:200px;padding:2px;font-family:"trebuchet ms",verdana,arial,sans-serif;font-size:12px;background:hsl(80, 100%, 96.2745098039%);border:1px solid #aaaa33;border-radius:2px;pointer-events:none;z-index:100;}#my-svg .flowchartTitleText{text-anchor:middle;font-size:18px;fill:#333;}#my-svg rect.text{fill:none;stroke-width:0;}#my-svg .icon-shape,#my-svg .image-shape{background-color:rgba(232,232,232, 0.8);text-align:center;}#my-svg .icon-shape p,#my-svg .image-shape p{background-color:rgba(232,232,232, 0.8);padding:2px;}#my-svg .icon-shape .label rect,#my-svg .image-shape .label rect{opacity:0.5;background-color:rgba(232,232,232, 0.8);fill:rgba(232,232,232, 0.8);}#my-svg .label-icon{display:inline-block;height:1em;overflow:visible;vertical-align:-0.125em;}#my-svg .node .label-icon path{fill:currentColor;stroke:revert;stroke-width:revert;}#my-svg .node .neo-node{stroke:#9370DB;}#my-svg [data-look="neo"].node rect,#my-svg [data-look="neo"].cluster rect,#my-svg [data-look="neo"].node polygon{stroke:#9370DB;filter:drop-shadow(1px 2px 2px rgba(185, 185, 185, 1));}#my-svg [data-look="neo"].node path{stroke:#9370DB;stroke-width:1px;}#my-svg [data-look="neo"].node .outer-path{filter:drop-shadow(1px 2px 2px rgba(185, 185, 185, 1));}#my-svg [data-look="neo"].node .neo-line path{stroke:#9370DB;filter:none;}#my-svg [data-look="neo"].node circle{stroke:#9370DB;filter:drop-shadow(1px 2px 2px rgba(185, 185, 185, 1));}#my-svg [data-look="neo"].node circle .state-start{fill:#000000;}#my-svg [data-look="neo"].icon-shape .icon{fill:#9370DB;filter:drop-shadow(1px 2px 2px rgba(185, 185, 185, 1));}#my-svg [data-look="neo"].icon-shape .icon-neo path{stroke:#9370DB;filter:drop-shadow(1px 2px 2px rgba(185, 185, 185, 1));}#my-svg :root{--mermaid-font-family:"trebuchet ms",verdana,arial,sans-serif;}</style><g><marker id="my-svg_flowchart-elk-pointEnd" class="marker flowchart-elk" viewBox="0 0 10 10" refX="5" refY="5" markerUnits="userSpaceOnUse" markerWidth="8" markerHeight="8" orient="auto"><path d="M 0 0 L 10 5 L 0 10 z" class="arrowMarkerPath" style="stroke-width: 1; stroke-dasharray: 1, 0;"/></marker><marker id="my-svg_flowchart-elk-pointStart" class="marker flowchart-elk" viewBox="0 0 10 10" refX="4.5" refY="5" markerUnits="userSpaceOnUse" markerWidth="8" markerHeight="8" orient="auto"><path d="M 0 5 L 10 10 L 10 0 z" class="arrowMarkerPath" style="stroke-width: 1; stroke-dasharray: 1, 0;"/></marker><marker id="my-svg_flowchart-elk-pointEnd-margin" class="marker flowchart-elk" viewBox="0 0 11.5 14" refX="11.5" refY="7" markerUnits="userSpaceOnUse" markerWidth="10.5" markerHeight="14" orient="auto"><path d="M 0 0 L 11.5 7 L 0 14 z" class="arrowMarkerPath" style="stroke-width: 0; stroke-dasharray: 1, 0;"/></marker><marker id="my-svg_flowchart-elk-pointStart-margin" class="marker flowchart-elk" viewBox="0 0 11.5 14" refX="1" refY="7" markerUnits="userSpaceOnUse" markerWidth="11.5" markerHeight="14" orient="auto"><polygon points="0,7 11.5,14 11.5,0" class="arrowMarkerPath" style="stroke-width: 0; stroke-dasharray: 1, 0;"/></marker><marker id="my-svg_flowchart-elk-circleEnd" class="marker flowchart-elk" viewBox="0 0 10 10" refX="11" refY="5" markerUnits="userSpaceOnUse" markerWidth="11" markerHeight="11" orient="auto"><circle cx="5" cy="5" r="5" class="arrowMarkerPath" style="stroke-width: 1; stroke-dasharray: 1, 0;"/></marker><marker id="my-svg_flowchart-elk-circleStart" class="marker flowchart-elk" viewBox="0 0 10 10" refX="-1" refY="5" markerUnits="userSpaceOnUse" markerWidth="11" markerHeight="11" orient="auto"><circle cx="5" cy="5" r="5" class="arrowMarkerPath" style="stroke-width: 1; stroke-dasharray: 1, 0;"/></marker><marker id="my-svg_flowchart-elk-circleEnd-margin" class="marker flowchart-elk" viewBox="0 0 10 10" refY="5" refX="12.25" markerUnits="userSpaceOnUse" markerWidth="14" markerHeight="14" orient="auto"><circle cx="5" cy="5" r="5" class="arrowMarkerPath" style="stroke-width: 0; stroke-dasharray: 1, 0;"/></marker><marker id="my-svg_flowchart-elk-circleStart-margin" class="marker flowchart-elk" viewBox="0 0 10 10" refX="-2" refY="5" markerUnits="userSpaceOnUse" markerWidth="14" markerHeight="14" orient="auto"><circle cx="5" cy="5" r="5" class="arrowMarkerPath" style="stroke-width: 0; stroke-dasharray: 1, 0;"/></marker><marker id="my-svg_flowchart-elk-crossEnd" class="marker cross flowchart-elk" viewBox="0 0 11 11" refX="12" refY="5.2" markerUnits="userSpaceOnUse" markerWidth="11" markerHeight="11" orient="auto"><path d="M 1,1 l 9,9 M 10,1 l -9,9" class="arrowMarkerPath" style="stroke-width: 2; stroke-dasharray: 1, 0;"/></marker><marker id="my-svg_flowchart-elk-crossStart" class="marker cross flowchart-elk" viewBox="0 0 11 11" refX="-1" refY="5.2" markerUnits="userSpaceOnUse" markerWidth="11" markerHeight="11" orient="auto"><path d="M 1,1 l 9,9 M 10,1 l -9,9" class="arrowMarkerPath" style="stroke-width: 2; stroke-dasharray: 1, 0;"/></marker><marker id="my-svg_flowchart-elk-crossEnd-margin" class="marker cross flowchart-elk" viewBox="0 0 15 15" refX="17.7" refY="7.5" markerUnits="userSpaceOnUse" markerWidth="12" markerHeight="12" orient="auto"><path d="M 1,1 L 14,14 M 1,14 L 14,1" class="arrowMarkerPath" style="stroke-width: 2.5;"/></marker><marker id="my-svg_flowchart-elk-crossStart-margin" class="marker cross flowchart-elk" viewBox="0 0 15 15" refX="-3.5" refY="7.5" markerUnits="userSpaceOnUse" markerWidth="12" markerHeight="12" orient="auto"><path d="M 1,1 L 14,14 M 1,14 L 14,1" class="arrowMarkerPath" style="stroke-width: 2.5; stroke-dasharray: 1, 0;"/></marker></g><defs><filter id="my-svg-drop-shadow" height="130%" width="130%"><feDropShadow dx="4" dy="4" stdDeviation="0" flood-opacity="0.06" flood-color="#000000"/></filter></defs><defs><filter id="my-svg-drop-shadow-small" height="150%" width="150%"><feDropShadow dx="2" dy="2" stdDeviation="0" flood-opacity="0.06" flood-color="#000000"/></filter></defs><g class="subgraphs"/><g class="nodes"><g class="node default" id="my-svg-flowchart-A-0" data-look="classic" transform="translate(97.66666666666666, 31.5)"><g class="basic label-container outer-path"><path d="M-8.875 -19.5 C-4.00721863980885 -19.5, 0.8605627203822994 -19.5, 8.875 -19.5 C8.875 -19.5, 8.875 -19.5, 8.874999999999998 -19.5 C9.209272730555444 -19.489280524153486, 9.543545461110892 -19.47856104830697, 10.1243692896239 -19.45993515863156 C10.565375386170599 -19.417391830885126, 11.0063814827173 -19.374848503138697, 11.368604652847864 -19.3399052695533 C11.660648694769801 -19.29268985369073, 11.952692736691738 -19.245474437828165, 12.602593259676757 -19.140403561325776 C12.995715908251709 -19.05067588215357, 13.388838556826663 -18.960948202981363, 13.82126438623539 -18.862249829261074 C14.178285141223126 -18.7562879432209, 14.535305896210865 -18.650326057180724, 15.019610251460602 -18.50658706670804 C15.386206576138902 -18.371676230447147, 15.752802900817201 -18.236765394186257, 16.192706595147794 -18.074876768247425 C16.60285595458569 -17.893315813472736, 17.01300531402358 -17.711754858698047, 17.33573291279238 -17.568892924097174 C17.70114290744816 -17.378258763941528, 18.06655290210394 -17.187624603785878, 18.443992264076783 -16.990714730406097 C18.73442319803945 -16.81465379147631, 19.02485413200212 -16.638592852546527, 19.512930573605697 -16.342718045390892 C19.859971474760467 -16.100637335903805, 20.207012375915237 -15.858556626416718, 20.538155344578712 -15.627565626425154 C20.78547801396638 -15.430332379121127, 21.03280068335405 -15.2330991318171, 21.51545370850187 -14.848196188198123 C21.756475723647952 -14.62930637113552, 21.99749773879403 -14.410416554072915, 22.440809736767985 -14.007812326905688 C22.647702855906626 -13.794178195154057, 22.854595975045267 -13.580544063402428, 23.310420942968648 -13.10986736009568 C23.607411780652306 -12.76100502289506, 23.90440261833596 -12.412142685694437, 24.120713908126582 -12.158051136245305 C24.279768539978303 -11.94493241973905, 24.438823171830027 -11.731813703232795, 24.868358964640635 -11.156274872382312 C25.03064642943992 -10.906957746164498, 25.192933894239204 -10.657640619946681, 25.550283878604247 -10.108655082055241 C25.786423080844305 -9.689366016790899, 26.022562283084362 -9.270076951526558, 26.1636864742735 -9.019496659696287 C26.27511390125503 -8.788115223404144, 26.386541328236554 -8.556733787112002, 26.70604614880834 -7.893275190886684 C26.829210038924792 -7.589058001087228, 26.952373929041244 -7.28484081128777, 27.175134229970325 -6.734618561215508 C27.311571355130265 -6.323691678537541, 27.448008480290206 -5.912764795859575, 27.56902313421488 -5.548287939305138 C27.68134973673608 -5.1199379212343175, 27.79367633925728 -4.691587903163498, 27.88609428754556 -4.339158212148133 C27.97798523797569 -3.867317602848663, 28.06987618840582 -3.395476993549193, 28.125044776581777 -3.1121979531509023 C28.173909367904177 -2.733213832259367, 28.222773959226572 -2.3542297113678314, 28.284892702509367 -1.872449005199798 C28.304151250823328 -1.5724815699894792, 28.323409799137284 -1.2725141347791604, 28.364981215913414 -0.6250057626472757 C28.364981215913414 -0.3261828254830694, 28.364981215913414 -0.027359888318863157, 28.364981215913414 0.625005762647271 C28.342247700382984 0.9790986171971527, 28.319514184852558 1.3331914717470343, 28.284892702509367 1.8724490051997846 C28.236229677523838 2.2498698173863514, 28.187566652538308 2.6272906295729186, 28.125044776581777 3.1121979531508885 C28.06872808202248 3.401372277175258, 28.01241138746319 3.690546601199628, 27.88609428754556 4.339158212148129 C27.771609336116708 4.775738950038169, 27.65712438468785 5.2123196879282085, 27.569023134214884 5.548287939305125 C27.477754323202497 5.823175056364208, 27.386485512190106 6.098062173423291, 27.17513422997033 6.734618561215495 C27.075218121691268 6.981413280411314, 26.975302013412207 7.228207999607132, 26.706046148808344 7.893275190886679 C26.57868856608281 8.15773593643198, 26.45133098335728 8.42219668197728, 26.163686474273504 9.019496659696284 C26.011343378025682 9.28999725349557, 25.85900028177786 9.560497847294858, 25.55028387860425 10.108655082055236 C25.295053081374913 10.500758125664927, 25.03982228414558 10.892861169274617, 24.86835896464064 11.156274872382301 C24.70154841399078 11.37978581349933, 24.53473786334091 11.603296754616359, 24.120713908126582 12.158051136245302 C23.93017217986042 12.381872292398217, 23.739630451594262 12.605693448551131, 23.31042094296866 13.10986736009567 C23.016449177680762 13.413417343286214, 22.722477412392866 13.716967326476757, 22.44080973676799 14.007812326905684 C22.178565815239722 14.245975317843717, 21.916321893711455 14.484138308781748, 21.515453708501887 14.848196188198111 C21.229388241660054 15.076325785482696, 20.94332277481822 15.30445538276728, 20.538155344578715 15.627565626425152 C20.321561880872128 15.778651850526941, 20.10496841716554 15.92973807462873, 19.512930573605708 16.34271804539089 C19.1578994574077 16.557939994424544, 18.802868341209695 16.773161943458202, 18.443992264076787 16.990714730406093 C18.01420805056001 17.214932879307867, 17.58442383704324 17.43915102820964, 17.335732912792388 17.56889292409717 C17.08529310035419 17.679755200030478, 16.83485328791599 17.79061747596379, 16.192706595147804 18.07487676824742 C15.885967216773347 18.187759694956952, 15.579227838398891 18.300642621666483, 15.019610251460616 18.506587066708033 C14.645213544702532 18.617706044025418, 14.270816837944448 18.7288250213428, 13.821264386235413 18.86224982926107 C13.389367600298824 18.960827452261174, 12.957470814362235 19.05940507526128, 12.602593259676766 19.140403561325773 C12.192100498877432 19.206768847472905, 11.7816077380781 19.273134133620037, 11.368604652847878 19.3399052695533 C10.873383718655182 19.387678637484555, 10.378162784462488 19.435452005415815, 10.1243692896239 19.45993515863156 C9.85580420373862 19.46854751820567, 9.58723911785334 19.477159877779787, 8.875000000000004 19.5 C8.875000000000004 19.5, 8.875000000000002 19.5, 8.875 19.5 C4.078955446223364 19.5, -0.7170891075532726 19.5, -8.874999999999996 19.5 C-9.279666189258592 19.487023142945432, -9.684332378517187 19.474046285890864, -10.124369289623893 19.45993515863156 C-10.54562371100013 19.419297251233957, -10.966878132376369 19.378659343836357, -11.368604652847871 19.3399052695533 C-11.783116827560052 19.27289015573576, -12.197629002272233 19.205875041918215, -12.602593259676759 19.140403561325773 C-13.052846180113614 19.037636270410953, -13.503099100550468 18.934868979496134, -13.821264386235388 18.862249829261074 C-14.158949731872507 18.76202659122253, -14.496635077509625 18.661803353183984, -15.019610251460593 18.506587066708043 C-15.260861981598937 18.417804199910584, -15.502113711737282 18.32902133311313, -16.192706595147797 18.074876768247425 C-16.581157752221102 17.902920964005233, -16.969608909294408 17.730965159763045, -17.33573291279238 17.568892924097174 C-17.56007757501543 17.451852457515024, -17.78442223723848 17.33481199093287, -18.44399226407678 16.990714730406097 C-18.678351275636558 16.848644920352136, -18.912710287196337 16.706575110298175, -19.512930573605686 16.3427180453909 C-19.819852693112544 16.12862246126733, -20.126774812619406 15.914526877143759, -20.538155344578712 15.627565626425156 C-20.82908384094575 15.395557892504874, -21.120012337312783 15.163550158584592, -21.51545370850187 14.848196188198125 C-21.738801063761798 14.64535802959825, -21.962148419021727 14.442519870998375, -22.440809736767974 14.007812326905697 C-22.77565250208873 13.662059680609723, -23.11049526740948 13.31630703431375, -23.310420942968655 13.109867360095677 C-23.514066185230785 12.870654070792028, -23.717711427492915 12.631440781488378, -24.12071390812658 12.158051136245307 C-24.28591384833194 11.936698266394286, -24.4511137885373 11.715345396543263, -24.868358964640635 11.156274872382316 C-25.07345669086393 10.841189688452411, -25.27855441708723 10.526104504522507, -25.550283878604244 10.108655082055249 C-25.720607264259986 9.80622866371047, -25.890930649915724 9.503802245365694, -26.1636864742735 9.019496659696289 C-26.31241767260891 8.71065314401497, -26.461148870944317 8.401809628333652, -26.70604614880834 7.893275190886686 C-26.862179497988308 7.507622799779215, -27.01831284716828 7.121970408671743, -27.175134229970325 6.73461856121551 C-27.331798297039143 6.262771352233546, -27.488462364107956 5.790924143251583, -27.56902313421488 5.5482879393051325 C-27.65034012440825 5.238191012691331, -27.731657114601617 4.928094086077531, -27.886094287545557 4.339158212148136 C-27.948557002002836 4.018425374909394, -28.011019716460112 3.6976925376706515, -28.125044776581777 3.112197953150904 C-28.183913707507514 2.6556221498761685, -28.24278263843325 2.1990463466014325, -28.284892702509364 1.872449005199809 C-28.31463238203604 1.409229491134551, -28.34437206156272 0.9460099770692932, -28.364981215913414 0.6250057626472781 C-28.364981215913414 0.18746386999318992, -28.364981215913414 -0.2500780226608983, -28.364981215913414 -0.6250057626472687 C-28.345431337684175 -0.9295108964453132, -28.32588145945494 -1.2340160302433576, -28.284892702509367 -1.8724490051997822 C-28.222657801874224 -2.355130604854775, -28.16042290123908 -2.8378122045097682, -28.125044776581777 -3.112197953150895 C-28.036153590900767 -3.5686354044641377, -27.947262405219757 -4.02507285577738, -27.88609428754556 -4.339158212148126 C-27.776367917166528 -4.757592418113129, -27.666641546787492 -5.176026624078132, -27.569023134214884 -5.548287939305123 C-27.46777321087149 -5.853236576430918, -27.36652328752809 -6.158185213556714, -27.175134229970332 -6.734618561215485 C-27.02282536395509 -7.11082440496474, -26.870516497939843 -7.487030248713994, -26.706046148808344 -7.893275190886676 C-26.557022799031053 -8.202725365288108, -26.407999449253758 -8.512175539689542, -26.163686474273504 -9.019496659696282 C-25.998042704635267 -9.313613945939478, -25.83239893499703 -9.607731232182674, -25.550283878604247 -10.108655082055243 C-25.35162089939782 -10.413854766595726, -25.15295792019139 -10.71905445113621, -24.86835896464064 -11.156274872382308 C-24.596182741770697 -11.520966215264032, -24.324006518900756 -11.885657558145757, -24.120713908126586 -12.158051136245302 C-23.933347386746473 -12.378142513715476, -23.74598086536636 -12.59823389118565, -23.310420942968662 -13.10986736009567 C-23.086387324968957 -13.341200464182478, -22.862353706969248 -13.572533568269284, -22.440809736767996 -14.007812326905677 C-22.208009036890456 -14.219235762965473, -21.975208337012916 -14.430659199025271, -21.515453708501887 -14.848196188198107 C-21.176773340520306 -15.11828476900032, -20.83809297253872 -15.388373349802535, -20.53815534457872 -15.627565626425149 C-20.190085938335525 -15.870363776538655, -19.842016532092327 -16.11316192665216, -19.51293057360571 -16.342718045390885 C-19.140304376227164 -16.56860623603636, -18.767678178848612 -16.794494426681837, -18.44399226407679 -16.99071473040609 C-18.208059683031976 -17.11380060681514, -17.972127101987162 -17.236886483224186, -17.335732912792388 -17.56889292409717 C-17.095359843369348 -17.67529895151699, -16.85498677394631 -17.78170497893681, -16.192706595147804 -18.07487676824742 C-15.947470793494858 -18.165125810190606, -15.702234991841912 -18.255374852133787, -15.019610251460618 -18.506587066708033 C-14.68455626552217 -18.606029331000304, -14.349502279583723 -18.705471595292572, -13.821264386235413 -18.862249829261067 C-13.529083076223522 -18.928938306610046, -13.236901766211629 -18.99562678395903, -12.602593259676768 -19.140403561325773 C-12.353942928872282 -19.180603418498126, -12.105292598067795 -19.220803275670484, -11.36860465284788 -19.3399052695533 C-10.98814786507369 -19.376607478303644, -10.607691077299501 -19.41330968705399, -10.124369289623903 -19.45993515863156 C-9.700875242580617 -19.47351578843908, -9.277381195537332 -19.4870964182466, -8.875000000000005 -19.5 C-8.875000000000004 -19.5, -8.875000000000002 -19.5, -8.875 -19.5" stroke="none" stroke-width="0" fill="#ECECFF" style=""/><path d="M-8.875 -19.5 C-4.733447335603807 -19.5, -0.5918946712076139 -19.5, 8.875 -19.5 M-8.875 -19.5 C-3.229246468549043 -19.5, 2.416507062901914 -19.5, 8.875 -19.5 M8.875 -19.5 C8.875 -19.5, 8.875 -19.5, 8.874999999999998 -19.5 M8.875 -19.5 C8.875 -19.5, 8.874999999999998 -19.5, 8.874999999999998 -19.5 M8.874999999999998 -19.5 C9.323985744241632 -19.485601901079907, 9.772971488483268 -19.471203802159813, 10.1243692896239 -19.45993515863156 M8.874999999999998 -19.5 C9.183283617520658 -19.490113944423772, 9.49156723504132 -19.480227888847544, 10.1243692896239 -19.45993515863156 M10.1243692896239 -19.45993515863156 C10.451989270017394 -19.42833005314367, 10.77960925041089 -19.396724947655784, 11.368604652847864 -19.3399052695533 M10.1243692896239 -19.45993515863156 C10.428888221627718 -19.430558583498748, 10.733407153631534 -19.40118200836594, 11.368604652847864 -19.3399052695533 M11.368604652847864 -19.3399052695533 C11.85049797645589 -19.261996494130894, 12.332391300063914 -19.184087718708486, 12.602593259676757 -19.140403561325776 M11.368604652847864 -19.3399052695533 C11.744209641441739 -19.27918036785763, 12.119814630035613 -19.218455466161966, 12.602593259676757 -19.140403561325776 M12.602593259676757 -19.140403561325776 C12.988157056679578 -19.052401140698795, 13.373720853682396 -18.964398720071813, 13.82126438623539 -18.862249829261074 M12.602593259676757 -19.140403561325776 C12.848065483785753 -19.08437612802886, 13.093537707894749 -19.028348694731946, 13.82126438623539 -18.862249829261074 M13.82126438623539 -18.862249829261074 C14.135573782274815 -18.76896445036026, 14.44988317831424 -18.675679071459445, 15.019610251460602 -18.50658706670804 M13.82126438623539 -18.862249829261074 C14.069895178324582 -18.788457515258663, 14.318525970413775 -18.71466520125625, 15.019610251460602 -18.50658706670804 M15.019610251460602 -18.50658706670804 C15.29087951980083 -18.406757468373208, 15.56214878814106 -18.306927870038376, 16.192706595147794 -18.074876768247425 M15.019610251460602 -18.50658706670804 C15.287120400833366 -18.408140858902147, 15.55463055020613 -18.309694651096258, 16.192706595147794 -18.074876768247425 M16.192706595147794 -18.074876768247425 C16.61676735222576 -17.887157650404422, 17.04082810930373 -17.699438532561423, 17.33573291279238 -17.568892924097174 M16.192706595147794 -18.074876768247425 C16.617285000766262 -17.88692850275104, 17.04186340638473 -17.69898023725466, 17.33573291279238 -17.568892924097174 M17.33573291279238 -17.568892924097174 C17.618281450178905 -17.4214875331236, 17.90082998756543 -17.274082142150025, 18.443992264076783 -16.990714730406097 M17.33573291279238 -17.568892924097174 C17.720968556935553 -17.367915735302887, 18.106204201078725 -17.166938546508604, 18.443992264076783 -16.990714730406097 M18.443992264076783 -16.990714730406097 C18.799134319097625 -16.77542552960609, 19.154276374118467 -16.560136328806077, 19.512930573605697 -16.342718045390892 M18.443992264076783 -16.990714730406097 C18.708518069919045 -16.830357632378334, 18.973043875761302 -16.67000053435057, 19.512930573605697 -16.342718045390892 M19.512930573605697 -16.342718045390892 C19.77878210968896 -16.15727152234672, 20.044633645772226 -15.971824999302548, 20.538155344578712 -15.627565626425154 M19.512930573605697 -16.342718045390892 C19.75606904483682 -16.17311517315484, 19.999207516067948 -16.003512300918793, 20.538155344578712 -15.627565626425154 M20.538155344578712 -15.627565626425154 C20.74564642343471 -15.462097012606993, 20.953137502290712 -15.296628398788833, 21.51545370850187 -14.848196188198123 M20.538155344578712 -15.627565626425154 C20.894704501541266 -15.343227161919062, 21.251253658503817 -15.058888697412971, 21.51545370850187 -14.848196188198123 M21.51545370850187 -14.848196188198123 C21.882292521307363 -14.515042884431287, 22.24913133411286 -14.18188958066445, 22.440809736767985 -14.007812326905688 M21.51545370850187 -14.848196188198123 C21.743817380740953 -14.640802343242253, 21.97218105298004 -14.433408498286383, 22.440809736767985 -14.007812326905688 M22.440809736767985 -14.007812326905688 C22.765396700076984 -13.672649638203852, 23.089983663385983 -13.337486949502017, 23.310420942968648 -13.10986736009568 M22.440809736767985 -14.007812326905688 C22.759260108224947 -13.678986173114641, 23.07771047968191 -13.350160019323594, 23.310420942968648 -13.10986736009568 M23.310420942968648 -13.10986736009568 C23.57489288433229 -12.799203568890167, 23.839364825695935 -12.488539777684654, 24.120713908126582 -12.158051136245305 M23.310420942968648 -13.10986736009568 C23.615559478406478 -12.751434273495871, 23.920698013844312 -12.393001186896061, 24.120713908126582 -12.158051136245305 M24.120713908126582 -12.158051136245305 C24.403128201687228 -11.77964171134547, 24.68554249524787 -11.401232286445634, 24.868358964640635 -11.156274872382312 M24.120713908126582 -12.158051136245305 C24.36057176543387 -11.836663458953865, 24.60042962274116 -11.515275781662423, 24.868358964640635 -11.156274872382312 M24.868358964640635 -11.156274872382312 C25.115868209430275 -10.776034206847145, 25.36337745421992 -10.395793541311978, 25.550283878604247 -10.108655082055241 M24.868358964640635 -11.156274872382312 C25.040673642827546 -10.891553253717294, 25.21298832101446 -10.626831635052278, 25.550283878604247 -10.108655082055241 M25.550283878604247 -10.108655082055241 C25.70879673002102 -9.827199463198022, 25.867309581437798 -9.545743844340803, 26.1636864742735 -9.019496659696287 M25.550283878604247 -10.108655082055241 C25.71439642319541 -9.817256640936474, 25.878508967786576 -9.525858199817707, 26.1636864742735 -9.019496659696287 M26.1636864742735 -9.019496659696287 C26.295832598264838 -8.745092405754175, 26.427978722256174 -8.470688151812062, 26.70604614880834 -7.893275190886684 M26.1636864742735 -9.019496659696287 C26.287437303895988 -8.762525414141612, 26.41118813351848 -8.505554168586936, 26.70604614880834 -7.893275190886684 M26.70604614880834 -7.893275190886684 C26.877683807514977 -7.4693268554929135, 27.04932146622161 -7.045378520099143, 27.175134229970325 -6.734618561215508 M26.70604614880834 -7.893275190886684 C26.829897790122804 -7.5873592423313765, 26.953749431437263 -7.281443293776068, 27.175134229970325 -6.734618561215508 M27.175134229970325 -6.734618561215508 C27.32356590737627 -6.28756599824495, 27.471997584782216 -5.840513435274391, 27.56902313421488 -5.548287939305138 M27.175134229970325 -6.734618561215508 C27.28518599725041 -6.403160172535795, 27.395237764530496 -6.071701783856082, 27.56902313421488 -5.548287939305138 M27.56902313421488 -5.548287939305138 C27.642983623690753 -5.266244538254733, 27.716944113166626 -4.984201137204328, 27.88609428754556 -4.339158212148133 M27.56902313421488 -5.548287939305138 C27.669992651546405 -5.16324740925441, 27.77096216887793 -4.778206879203681, 27.88609428754556 -4.339158212148133 M27.88609428754556 -4.339158212148133 C27.959287347999688 -3.9633273160749907, 28.032480408453818 -3.587496420001848, 28.125044776581777 -3.1121979531509023 M27.88609428754556 -4.339158212148133 C27.960652560095685 -3.9563172404997355, 28.035210832645806 -3.573476268851338, 28.125044776581777 -3.1121979531509023 M28.125044776581777 -3.1121979531509023 C28.173299064547987 -2.73794722457194, 28.221553352514196 -2.3636964959929774, 28.284892702509367 -1.872449005199798 M28.125044776581777 -3.1121979531509023 C28.159570197864525 -2.8444256034975033, 28.19409561914727 -2.5766532538441043, 28.284892702509367 -1.872449005199798 M28.284892702509367 -1.872449005199798 C28.30510558336558 -1.5576170703204983, 28.325318464221795 -1.2427851354411987, 28.364981215913414 -0.6250057626472757 M28.284892702509367 -1.872449005199798 C28.30317789489462 -1.5876423742578556, 28.32146308727987 -1.3028357433159132, 28.364981215913414 -0.6250057626472757 M28.364981215913414 -0.6250057626472757 C28.364981215913414 -0.20754481352917176, 28.364981215913414 0.20991613558893218, 28.364981215913414 0.625005762647271 M28.364981215913414 -0.6250057626472757 C28.364981215913414 -0.3395579376176261, 28.364981215913414 -0.05411011258797649, 28.364981215913414 0.625005762647271 M28.364981215913414 0.625005762647271 C28.33313800278098 1.1209895105639558, 28.301294789648544 1.6169732584806407, 28.284892702509367 1.8724490051997846 M28.364981215913414 0.625005762647271 C28.34296372107792 0.9679460169120551, 28.320946226242427 1.3108862711768392, 28.284892702509367 1.8724490051997846 M28.284892702509367 1.8724490051997846 C28.22709089837136 2.3207483838368765, 28.16928909423336 2.769047762473968, 28.125044776581777 3.1121979531508885 M28.284892702509367 1.8724490051997846 C28.23708458383316 2.243239332871605, 28.189276465156947 2.6140296605434257, 28.125044776581777 3.1121979531508885 M28.125044776581777 3.1121979531508885 C28.076372501387674 3.362119799383615, 28.027700226193566 3.612041645616342, 27.88609428754556 4.339158212148129 M28.125044776581777 3.1121979531508885 C28.065963569609433 3.415567464136369, 28.006882362637086 3.7189369751218497, 27.88609428754556 4.339158212148129 M27.88609428754556 4.339158212148129 C27.81314208084169 4.6173565939963765, 27.74018987413782 4.8955549758446235, 27.569023134214884 5.548287939305125 M27.88609428754556 4.339158212148129 C27.800069862353872 4.6672066286257525, 27.714045437162188 4.9952550451033755, 27.569023134214884 5.548287939305125 M27.569023134214884 5.548287939305125 C27.41284249513654 6.01867914020357, 27.256661856058198 6.489070341102015, 27.17513422997033 6.734618561215495 M27.569023134214884 5.548287939305125 C27.45756144230202 5.883992796337791, 27.346099750389154 6.219697653370457, 27.17513422997033 6.734618561215495 M27.17513422997033 6.734618561215495 C26.98931018211669 7.193607552077541, 26.803486134263053 7.6525965429395875, 26.706046148808344 7.893275190886679 M27.17513422997033 6.734618561215495 C27.078226691937022 6.973982053737555, 26.981319153903712 7.213345546259616, 26.706046148808344 7.893275190886679 M26.706046148808344 7.893275190886679 C26.575393204355322 8.164578825568555, 26.4447402599023 8.435882460250431, 26.163686474273504 9.019496659696284 M26.706046148808344 7.893275190886679 C26.561030505398243 8.194403277265458, 26.416014861988142 8.495531363644238, 26.163686474273504 9.019496659696284 M26.163686474273504 9.019496659696284 C26.02509145959654 9.265586142522297, 25.886496444919572 9.51167562534831, 25.55028387860425 10.108655082055236 M26.163686474273504 9.019496659696284 C25.947723352691266 9.40296105070296, 25.73176023110903 9.786425441709635, 25.55028387860425 10.108655082055236 M25.55028387860425 10.108655082055236 C25.383841283352996 10.364355604456033, 25.21739868810174 10.62005612685683, 24.86835896464064 11.156274872382301 M25.55028387860425 10.108655082055236 C25.31008730711942 10.477661517666483, 25.06989073563459 10.84666795327773, 24.86835896464064 11.156274872382301 M24.86835896464064 11.156274872382301 C24.713437608693962 11.363855375724981, 24.558516252747282 11.571435879067662, 24.120713908126582 12.158051136245302 M24.86835896464064 11.156274872382301 C24.63461471433849 11.469470873247914, 24.400870464036338 11.782666874113527, 24.120713908126582 12.158051136245302 M24.120713908126582 12.158051136245302 C23.805086450088275 12.528805108168235, 23.48945899204997 12.89955908009117, 23.31042094296866 13.10986736009567 M24.120713908126582 12.158051136245302 C23.876915521941296 12.444430593179705, 23.633117135756006 12.73081005011411, 23.31042094296866 13.10986736009567 M23.31042094296866 13.10986736009567 C23.006724204519138 13.423459176510734, 22.70302746606962 13.7370509929258, 22.44080973676799 14.007812326905684 M23.31042094296866 13.10986736009567 C22.987154430573337 13.443666574818097, 22.663887918178016 13.777465789540523, 22.44080973676799 14.007812326905684 M22.44080973676799 14.007812326905684 C22.101107419373818 14.31632098353228, 21.76140510197965 14.624829640158875, 21.515453708501887 14.848196188198111 M22.44080973676799 14.007812326905684 C22.125877097717375 14.293825817030438, 21.810944458666764 14.579839307155192, 21.515453708501887 14.848196188198111 M21.515453708501887 14.848196188198111 C21.308809412624797 15.012989515124433, 21.102165116747706 15.177782842050755, 20.538155344578715 15.627565626425152 M21.515453708501887 14.848196188198111 C21.147759230342356 15.141422749769339, 20.780064752182827 15.434649311340568, 20.538155344578715 15.627565626425152 M20.538155344578715 15.627565626425152 C20.320418668271454 15.779449306148296, 20.102681991964193 15.93133298587144, 19.512930573605708 16.34271804539089 M20.538155344578715 15.627565626425152 C20.221673842565018 15.848329421966495, 19.905192340551324 16.069093217507838, 19.512930573605708 16.34271804539089 M19.512930573605708 16.34271804539089 C19.231258901348184 16.51346906839988, 18.94958722909066 16.68422009140887, 18.443992264076787 16.990714730406093 M19.512930573605708 16.34271804539089 C19.105600145901633 16.589644144404392, 18.698269718197558 16.836570243417896, 18.443992264076787 16.990714730406093 M18.443992264076787 16.990714730406093 C18.137153797603887 17.15079216182559, 17.830315331130986 17.31086959324508, 17.335732912792388 17.56889292409717 M18.443992264076787 16.990714730406093 C18.114330776275523 17.16269891743375, 17.784669288474262 17.33468310446141, 17.335732912792388 17.56889292409717 M17.335732912792388 17.56889292409717 C16.916227710296813 17.75459543306227, 16.496722507801238 17.940297942027374, 16.192706595147804 18.07487676824742 M17.335732912792388 17.56889292409717 C16.929508032434487 17.748716628398682, 16.523283152076587 17.928540332700194, 16.192706595147804 18.07487676824742 M16.192706595147804 18.07487676824742 C15.748549683561658 18.238330617452604, 15.304392771975513 18.40178446665779, 15.019610251460616 18.506587066708033 M16.192706595147804 18.07487676824742 C15.773676757456714 18.2290836219871, 15.354646919765626 18.383290475726778, 15.019610251460616 18.506587066708033 M15.019610251460616 18.506587066708033 C14.735792084645972 18.590822808826662, 14.451973917831326 18.67505855094529, 13.821264386235413 18.86224982926107 M15.019610251460616 18.506587066708033 C14.63965938686865 18.619354488916144, 14.259708522276686 18.732121911124253, 13.821264386235413 18.86224982926107 M13.821264386235413 18.86224982926107 C13.395152484741331 18.959507090137073, 12.96904058324725 19.056764351013076, 12.602593259676766 19.140403561325773 M13.821264386235413 18.86224982926107 C13.553672128813844 18.923326015814872, 13.286079871392273 18.984402202368674, 12.602593259676766 19.140403561325773 M12.602593259676766 19.140403561325773 C12.221407001367666 19.202030799425604, 11.840220743058566 19.26365803752544, 11.368604652847878 19.3399052695533 M12.602593259676766 19.140403561325773 C12.26259733383396 19.195371465908252, 11.922601407991154 19.250339370490735, 11.368604652847878 19.3399052695533 M11.368604652847878 19.3399052695533 C10.98446674344077 19.376962591680375, 10.600328834033663 19.41401991380745, 10.1243692896239 19.45993515863156 M11.368604652847878 19.3399052695533 C10.964087828730168 19.378928521073277, 10.559571004612456 19.417951772593252, 10.1243692896239 19.45993515863156 M10.1243692896239 19.45993515863156 C9.766068264765988 19.471425175108116, 9.407767239908075 19.48291519158467, 8.875000000000004 19.5 M10.1243692896239 19.45993515863156 C9.822122921097577 19.46962761138333, 9.519876552571256 19.479320064135102, 8.875000000000004 19.5 M8.875000000000004 19.5 C8.875000000000002 19.5, 8.875000000000002 19.5, 8.875 19.5 M8.875000000000004 19.5 C8.875000000000002 19.5, 8.875000000000002 19.5, 8.875 19.5 M8.875 19.5 C4.0854411047934684 19.5, -0.7041177904130631 19.5, -8.874999999999996 19.5 M8.875 19.5 C5.175506781705394 19.5, 1.4760135634107883 19.5, -8.874999999999996 19.5 M-8.874999999999996 19.5 C-9.341301255303154 19.48504662634276, -9.807602510606314 19.470093252685523, -10.124369289623893 19.45993515863156 M-8.874999999999996 19.5 C-9.209381883188417 19.489277023840998, -9.543763766376836 19.478554047682, -10.124369289623893 19.45993515863156 M-10.124369289623893 19.45993515863156 C-10.42964286295388 19.430485784157604, -10.734916436283868 19.401036409683645, -11.368604652847871 19.3399052695533 M-10.124369289623893 19.45993515863156 C-10.460598126743959 19.427499567088926, -10.796826963864024 19.39506397554629, -11.368604652847871 19.3399052695533 M-11.368604652847871 19.3399052695533 C-11.675781904506481 19.2902432337003, -11.982959156165093 19.2405811978473, -12.602593259676759 19.140403561325773 M-11.368604652847871 19.3399052695533 C-11.720702426305838 19.28298083209963, -12.072800199763803 19.22605639464596, -12.602593259676759 19.140403561325773 M-12.602593259676759 19.140403561325773 C-12.882973957838907 19.07640849662531, -13.163354656001054 19.012413431924845, -13.821264386235388 18.862249829261074 M-12.602593259676759 19.140403561325773 C-12.950815913224602 19.060924013018656, -13.299038566772444 18.98144446471154, -13.821264386235388 18.862249829261074 M-13.821264386235388 18.862249829261074 C-14.209869910150374 18.746913749595127, -14.59847543406536 18.631577669929182, -15.019610251460593 18.506587066708043 M-13.821264386235388 18.862249829261074 C-14.062518037102013 18.790647012050115, -14.303771687968638 18.719044194839157, -15.019610251460593 18.506587066708043 M-15.019610251460593 18.506587066708043 C-15.326473812373374 18.39365843967648, -15.633337373286157 18.280729812644914, -16.192706595147797 18.074876768247425 M-15.019610251460593 18.506587066708043 C-15.483226117675317 18.335972142322937, -15.94684198389004 18.16535721793783, -16.192706595147797 18.074876768247425 M-16.192706595147797 18.074876768247425 C-16.448331822350788 17.961719063017604, -16.703957049553782 17.848561357787787, -17.33573291279238 17.568892924097174 M-16.192706595147797 18.074876768247425 C-16.50954718838329 17.93462083636433, -16.82638778161878 17.79436490448124, -17.33573291279238 17.568892924097174 M-17.33573291279238 17.568892924097174 C-17.689982348346657 17.3840812204761, -18.044231783900933 17.199269516855026, -18.44399226407678 16.990714730406097 M-17.33573291279238 17.568892924097174 C-17.62372363049077 17.41864835114078, -17.91171434818916 17.268403778184393, -18.44399226407678 16.990714730406097 M-18.44399226407678 16.990714730406097 C-18.73011413925076 16.817265968236857, -19.016236014424738 16.643817206067613, -19.512930573605686 16.3427180453909 M-18.44399226407678 16.990714730406097 C-18.856966438758995 16.740367358808104, -19.269940613441207 16.490019987210115, -19.512930573605686 16.3427180453909 M-19.512930573605686 16.3427180453909 C-19.87861321581549 16.087633664331783, -20.2442958580253 15.83254928327267, -20.538155344578712 15.627565626425156 M-19.512930573605686 16.3427180453909 C-19.78185870932172 16.15512541962676, -20.050786845037752 15.96753279386262, -20.538155344578712 15.627565626425156 M-20.538155344578712 15.627565626425156 C-20.755532732387028 15.454212944303254, -20.97291012019534 15.280860262181353, -21.51545370850187 14.848196188198125 M-20.538155344578712 15.627565626425156 C-20.77249005125763 15.440689933757154, -21.00682475793655 15.253814241089152, -21.51545370850187 14.848196188198125 M-21.51545370850187 14.848196188198125 C-21.753180896382805 14.632298646081376, -21.990908084263737 14.416401103964626, -22.440809736767974 14.007812326905697 M-21.51545370850187 14.848196188198125 C-21.70931306236988 14.672138252252628, -21.903172416237886 14.496080316307133, -22.440809736767974 14.007812326905697 M-22.440809736767974 14.007812326905697 C-22.772589001480362 13.665222996505937, -23.10436826619275 13.322633666106178, -23.310420942968655 13.109867360095677 M-22.440809736767974 14.007812326905697 C-22.750431380040254 13.688102559817402, -23.060053023312534 13.368392792729107, -23.310420942968655 13.109867360095677 M-23.310420942968655 13.109867360095677 C-23.503707059205677 12.882822489672089, -23.6969931754427 12.6557776192485, -24.12071390812658 12.158051136245307 M-23.310420942968655 13.109867360095677 C-23.59065729816841 12.780685791377705, -23.870893653368164 12.451504222659734, -24.12071390812658 12.158051136245307 M-24.12071390812658 12.158051136245307 C-24.31001030499305 11.904411209700758, -24.499306701859524 11.650771283156208, -24.868358964640635 11.156274872382316 M-24.12071390812658 12.158051136245307 C-24.399080640088222 11.785065075147688, -24.677447372049862 11.412079014050068, -24.868358964640635 11.156274872382316 M-24.868358964640635 11.156274872382316 C-25.13897691883019 10.740533023651551, -25.40959487301974 10.324791174920787, -25.550283878604244 10.108655082055249 M-24.868358964640635 11.156274872382316 C-25.094388223486362 10.809033233440848, -25.32041748233209 10.46179159449938, -25.550283878604244 10.108655082055249 M-25.550283878604244 10.108655082055249 C-25.761938296970456 9.732841229912136, -25.97359271533667 9.357027377769022, -26.1636864742735 9.019496659696289 M-25.550283878604244 10.108655082055249 C-25.693479605290893 9.854396569183436, -25.836675331977542 9.600138056311623, -26.1636864742735 9.019496659696289 M-26.1636864742735 9.019496659696289 C-26.337185565733687 8.659222083993354, -26.51068465719387 8.29894750829042, -26.70604614880834 7.893275190886686 M-26.1636864742735 9.019496659696289 C-26.336113885911995 8.661447450073371, -26.50854129755049 8.303398240450452, -26.70604614880834 7.893275190886686 M-26.70604614880834 7.893275190886686 C-26.8127472178078 7.629721487533188, -26.919448286807263 7.36616778417969, -27.175134229970325 6.73461856121551 M-26.70604614880834 7.893275190886686 C-26.84139324517856 7.5589652460941545, -26.97674034154878 7.224655301301623, -27.175134229970325 6.73461856121551 M-27.175134229970325 6.73461856121551 C-27.25973455961124 6.479815847569086, -27.344334889252153 6.225013133922664, -27.56902313421488 5.5482879393051325 M-27.175134229970325 6.73461856121551 C-27.27849923238867 6.423299642908066, -27.381864234807008 6.111980724600622, -27.56902313421488 5.5482879393051325 M-27.56902313421488 5.5482879393051325 C-27.651925612955484 5.232144857705639, -27.73482809169609 4.916001776106145, -27.886094287545557 4.339158212148136 M-27.56902313421488 5.5482879393051325 C-27.66772680464874 5.171888065499451, -27.766430475082604 4.79548819169377, -27.886094287545557 4.339158212148136 M-27.886094287545557 4.339158212148136 C-27.95321361147915 3.9945146694232805, -28.020332935412743 3.649871126698425, -28.125044776581777 3.112197953150904 M-27.886094287545557 4.339158212148136 C-27.965119601482183 3.933379927089588, -28.04414491541881 3.527601642031041, -28.125044776581777 3.112197953150904 M-28.125044776581777 3.112197953150904 C-28.185405375796602 2.6440530651892176, -28.24576597501143 2.1759081772275315, -28.284892702509364 1.872449005199809 M-28.125044776581777 3.112197953150904 C-28.170312841888453 2.761107777822912, -28.21558090719513 2.4100176024949196, -28.284892702509364 1.872449005199809 M-28.284892702509364 1.872449005199809 C-28.310083400529145 1.4800835499762772, -28.335274098548922 1.0877180947527454, -28.364981215913414 0.6250057626472781 M-28.284892702509364 1.872449005199809 C-28.307838625320056 1.5150477358077659, -28.330784548130747 1.1576464664157224, -28.364981215913414 0.6250057626472781 M-28.364981215913414 0.6250057626472781 C-28.364981215913414 0.13610109706502793, -28.364981215913414 -0.3528035685172223, -28.364981215913414 -0.6250057626472687 M-28.364981215913414 0.6250057626472781 C-28.364981215913414 0.19452060481871275, -28.364981215913414 -0.23596455300985264, -28.364981215913414 -0.6250057626472687 M-28.364981215913414 -0.6250057626472687 C-28.34619539348595 -0.9176101105979497, -28.32740957105849 -1.2102144585486307, -28.284892702509367 -1.8724490051997822 M-28.364981215913414 -0.6250057626472687 C-28.33776322551547 -1.0489479330616436, -28.31054523511753 -1.4728901034760187, -28.284892702509367 -1.8724490051997822 M-28.284892702509367 -1.8724490051997822 C-28.240679028406092 -2.2153615305672956, -28.196465354302816 -2.5582740559348087, -28.125044776581777 -3.112197953150895 M-28.284892702509367 -1.8724490051997822 C-28.2260895160085 -2.3285149076979295, -28.167286329507633 -2.7845808101960765, -28.125044776581777 -3.112197953150895 M-28.125044776581777 -3.112197953150895 C-28.053874090579395 -3.477644383843319, -27.982703404577013 -3.8430908145357434, -27.88609428754556 -4.339158212148126 M-28.125044776581777 -3.112197953150895 C-28.05445070462555 -3.4746835925837396, -27.98385663266932 -3.837169232016584, -27.88609428754556 -4.339158212148126 M-27.88609428754556 -4.339158212148126 C-27.819428669821537 -4.593383105591324, -27.75276305209751 -4.847607999034523, -27.569023134214884 -5.548287939305123 M-27.88609428754556 -4.339158212148126 C-27.808134302903728 -4.6364534216585085, -27.730174318261895 -4.933748631168891, -27.569023134214884 -5.548287939305123 M-27.569023134214884 -5.548287939305123 C-27.480819815132406 -5.81394228309113, -27.392616496049925 -6.079596626877138, -27.175134229970332 -6.734618561215485 M-27.569023134214884 -5.548287939305123 C-27.439483472405076 -5.938440761334038, -27.309943810595264 -6.328593583362954, -27.175134229970332 -6.734618561215485 M-27.175134229970332 -6.734618561215485 C-27.00136582476028 -7.163829881667876, -26.82759741955023 -7.593041202120268, -26.706046148808344 -7.893275190886676 M-27.175134229970332 -6.734618561215485 C-27.033419545182582 -7.084656572508267, -26.89170486039483 -7.4346945838010505, -26.706046148808344 -7.893275190886676 M-26.706046148808344 -7.893275190886676 C-26.519905894013778 -8.27979941273102, -26.333765639219212 -8.666323634575363, -26.163686474273504 -9.019496659696282 M-26.706046148808344 -7.893275190886676 C-26.588673376119775 -8.137002264749512, -26.471300603431207 -8.380729338612346, -26.163686474273504 -9.019496659696282 M-26.163686474273504 -9.019496659696282 C-25.997019102103874 -9.31543145588496, -25.830351729934243 -9.61136625207364, -25.550283878604247 -10.108655082055243 M-26.163686474273504 -9.019496659696282 C-25.94823727046667 -9.402048537652911, -25.732788066659836 -9.784600415609539, -25.550283878604247 -10.108655082055243 M-25.550283878604247 -10.108655082055243 C-25.361906188366465 -10.398053800753084, -25.173528498128682 -10.687452519450925, -24.86835896464064 -11.156274872382308 M-25.550283878604247 -10.108655082055243 C-25.305312186004056 -10.484997385999245, -25.060340493403864 -10.861339689943248, -24.86835896464064 -11.156274872382308 M-24.86835896464064 -11.156274872382308 C-24.628183424310894 -11.478088215982325, -24.388007883981142 -11.799901559582342, -24.120713908126586 -12.158051136245302 M-24.86835896464064 -11.156274872382308 C-24.6993086023576 -11.382786957036757, -24.53025824007456 -11.609299041691205, -24.120713908126586 -12.158051136245302 M-24.120713908126586 -12.158051136245302 C-23.92952747024932 -12.382629604992438, -23.738341032372052 -12.607208073739573, -23.310420942968662 -13.10986736009567 M-24.120713908126586 -12.158051136245302 C-23.845394304455898 -12.481457208846141, -23.570074700785213 -12.804863281446982, -23.310420942968662 -13.10986736009567 M-23.310420942968662 -13.10986736009567 C-23.020846014508813 -13.408877248274235, -22.731271086048963 -13.707887136452802, -22.440809736767996 -14.007812326905677 M-23.310420942968662 -13.10986736009567 C-22.97694717013182 -13.454206409255635, -22.643473397294976 -13.798545458415598, -22.440809736767996 -14.007812326905677 M-22.440809736767996 -14.007812326905677 C-22.21979771776041 -14.208529594910784, -21.998785698752826 -14.409246862915891, -21.515453708501887 -14.848196188198107 M-22.440809736767996 -14.007812326905677 C-22.19687808679704 -14.229344597331513, -21.952946436826085 -14.45087686775735, -21.515453708501887 -14.848196188198107 M-21.515453708501887 -14.848196188198107 C-21.244572577283783 -15.064216681894909, -20.97369144606568 -15.28023717559171, -20.53815534457872 -15.627565626425149 M-21.515453708501887 -14.848196188198107 C-21.2111291067071 -15.090886959711684, -20.90680450491232 -15.33357773122526, -20.53815534457872 -15.627565626425149 M-20.53815534457872 -15.627565626425149 C-20.310465524031144 -15.786392188705666, -20.08277570348357 -15.945218750986182, -19.51293057360571 -16.342718045390885 M-20.53815534457872 -15.627565626425149 C-20.19689006935837 -15.8656175092832, -19.855624794138027 -16.103669392141253, -19.51293057360571 -16.342718045390885 M-19.51293057360571 -16.342718045390885 C-19.103768093779067 -16.590754745167423, -18.694605613952422 -16.838791444943965, -18.44399226407679 -16.99071473040609 M-19.51293057360571 -16.342718045390885 C-19.16950761096458 -16.550903063521282, -18.826084648323448 -16.759088081651676, -18.44399226407679 -16.99071473040609 M-18.44399226407679 -16.99071473040609 C-18.149866845795106 -17.144159772727324, -17.855741427513426 -17.297604815048555, -17.335732912792388 -17.56889292409717 M-18.44399226407679 -16.99071473040609 C-18.090788335777297 -17.174980993562023, -17.737584407477804 -17.359247256717957, -17.335732912792388 -17.56889292409717 M-17.335732912792388 -17.56889292409717 C-16.899754755821967 -17.761887521355455, -16.46377659885155 -17.954882118613735, -16.192706595147804 -18.07487676824742 M-17.335732912792388 -17.56889292409717 C-16.997306774480855 -17.718704136472983, -16.65888063616932 -17.868515348848792, -16.192706595147804 -18.07487676824742 M-16.192706595147804 -18.07487676824742 C-15.90698697284399 -18.18002423041846, -15.621267350540178 -18.2851716925895, -15.019610251460618 -18.506587066708033 M-16.192706595147804 -18.07487676824742 C-15.76245606121866 -18.233212941925682, -15.332205527289517 -18.391549115603944, -15.019610251460618 -18.506587066708033 M-15.019610251460618 -18.506587066708033 C-14.734220629408012 -18.59128920849255, -14.448831007355407 -18.67599135027707, -13.821264386235413 -18.862249829261067 M-15.019610251460618 -18.506587066708033 C-14.709972284048275 -18.598485990113158, -14.400334316635933 -18.690384913518283, -13.821264386235413 -18.862249829261067 M-13.821264386235413 -18.862249829261067 C-13.527250021986557 -18.92935668927784, -13.233235657737701 -18.996463549294607, -12.602593259676768 -19.140403561325773 M-13.821264386235413 -18.862249829261067 C-13.51010593134689 -18.933269716090695, -13.198947476458368 -19.004289602920323, -12.602593259676768 -19.140403561325773 M-12.602593259676768 -19.140403561325773 C-12.345386079978852 -19.181986823467863, -12.088178900280937 -19.223570085609953, -11.36860465284788 -19.3399052695533 M-12.602593259676768 -19.140403561325773 C-12.109465131272795 -19.220128692860378, -11.616337002868821 -19.29985382439498, -11.36860465284788 -19.3399052695533 M-11.36860465284788 -19.3399052695533 C-11.085040817182415 -19.36726033174454, -10.80147698151695 -19.39461539393578, -10.124369289623903 -19.45993515863156 M-11.36860465284788 -19.3399052695533 C-11.05442131015318 -19.370214158762305, -10.74023796745848 -19.40052304797131, -10.124369289623903 -19.45993515863156 M-10.124369289623903 -19.45993515863156 C-9.709031933372126 -19.473254219241433, -9.293694577120348 -19.486573279851306, -8.875000000000005 -19.5 M-10.124369289623903 -19.45993515863156 C-9.708689880639342 -19.473265188206806, -9.293010471654783 -19.486595217782057, -8.875000000000005 -19.5 M-8.875000000000005 -19.5 C-8.875000000000004 -19.5, -8.875000000000004 -19.5, -8.875 -19.5 M-8.875000000000005 -19.5 C-8.875000000000004 -19.5, -8.875000000000004 -19.5, -8.875 -19.5" stroke="#9370DB" stroke-width="1.3" fill="none" stroke-dasharray="0 0" style=""/></g><g class="label" style="" transform="translate(-16, -12)"><rect/><foreignObject width="32" height="24"><div xmlns="http://www.w3.org/1999/xhtml" style="display: table-cell; white-space: nowrap; line-height: 1.5; max-width: 200px; text-align: center;"><span class="nodeLabel"><p>开始</p></span></div></foreignObject></g></g><g class="node default" id="my-svg-flowchart-B-1" data-look="classic" transform="translate(97.66666666666666, 105.5)"><polygon points="-19.5,0 111,0 130.5,-39 0,-39" class="label-container" transform="translate(-55.5,19.5)"/><g class="label" style="" transform="translate(-48, -12)"><rect/><foreignObject width="96" height="24"><div xmlns="http://www.w3.org/1999/xhtml" style="display: table-cell; white-space: nowrap; line-height: 1.5; max-width: 200px; text-align: center;"><span class="nodeLabel"><p>用户上传文件</p></span></div></foreignObject></g></g><g class="node default" id="my-svg-flowchart-C-2" data-look="classic" transform="translate(214.66666666666666, 251)"><polygon points="91,0 182,-91 91,-182 0,-91" class="label-container" transform="translate(-90.5, 91)"/><g class="label" style="" transform="translate(-64, -12)"><rect/><foreignObject width="128" height="24"><div xmlns="http://www.w3.org/1999/xhtml" style="display: table-cell; white-space: nowrap; line-height: 1.5; max-width: 200px; text-align: center;"><span class="nodeLabel"><p>文件格式是否支持</p></span></div></foreignObject></g></g><g class="node default" id="my-svg-flowchart-D-3" data-look="classic" transform="translate(103, 455.5)"><polygon points="-19.5,0 143,0 162.5,-39 0,-39" class="label-container" transform="translate(-71.5,19.5)"/><g class="label" style="" transform="translate(-64, -12)"><rect/><foreignObject width="128" height="24"><div xmlns="http://www.w3.org/1999/xhtml" style="display: table-cell; white-space: nowrap; line-height: 1.5; max-width: 200px; text-align: center;"><span class="nodeLabel"><p>提示用户重新上传</p></span></div></foreignObject></g></g><g class="node default" id="my-svg-flowchart-E-4" data-look="classic" transform="translate(308.5, 455.5)"><polygon points="0,0 143,0 143,-39 0,-39 0,0 -8,0 151,0 151,-39 -8,-39 -8,0" class="label-container" transform="translate(-71.5,19.5)"/><g class="label" style="" transform="translate(-64, -12)"><rect/><foreignObject width="128" height="24"><div xmlns="http://www.w3.org/1999/xhtml" style="display: table-cell; white-space: nowrap; line-height: 1.5; max-width: 200px; text-align: center;"><span class="nodeLabel"><p>调用文件解析模块</p></span></div></foreignObject></g></g></g><g class="edges edgePaths"><path d="M97.667,51L97.667,82" id="my-svg-L_A_B_0_0" class="edge-thickness-normal edge-pattern-solid edge-thickness-normal edge-pattern-solid flowchart-link" style=";" data-edge="true" data-et="edge" data-id="L_A_B_0_0" data-points="W3sieCI6OTcuNjY2NjY2NjY2NjY2NjYsInkiOjUxfSx7IngiOjk3LjY2NjY2NjY2NjY2NjY2LCJ5Ijo4Nn1d" data-look="classic" marker-end="url(#my-svg_flowchart-elk-pointEnd)"/><path d="M122.667,125L122.667,127.083C122.667,129.167,122.667,133.333,123.029,135.888C123.391,138.443,124.114,139.386,124.948,140.219C125.781,141.052,126.724,141.776,140.862,142.138C155,142.5,182.333,142.5,196.471,142.862C210.609,143.224,211.552,143.948,212.386,144.781C213.219,145.614,213.943,146.557,214.305,148.445C214.667,150.333,214.667,153.167,214.667,154.583L214.667,156" id="my-svg-L_B_C_0_0" class="edge-thickness-normal edge-pattern-solid edge-thickness-normal edge-pattern-solid flowchart-link" style=";" data-edge="true" data-et="edge" data-id="L_B_C_0_0" data-points="W3sieCI6MTIyLjY2NjY2NjY2NjY2NjY2LCJ5IjoxMjV9LHsieCI6MTIyLjY2NjY2NjY2NjY2NjY2LCJ5IjoxNDIuNX0seyJ4IjoyMTQuNjY2NjY2NjY2NjY2NjYsInkiOjE0Mi41fSx7IngiOjIxNC42NjY2NjY2NjY2NjY2NiwieSI6MTYwfV0=" data-look="classic" marker-end="url(#my-svg_flowchart-elk-pointEnd)"/><path d="M192.417,319.75L191.069,323.458C189.722,327.167,187.028,334.583,185.681,350.208C184.333,365.833,184.333,389.667,183.971,402.055C183.609,414.443,182.886,415.386,182.052,416.219C181.219,417.052,180.276,417.776,172.971,418.138C165.667,418.5,152,418.5,144.695,418.862C137.391,419.224,136.448,419.948,135.614,420.781C134.781,421.614,134.057,422.557,133.695,424.445C133.333,426.333,133.333,429.167,133.333,430.583L133.333,432" id="my-svg-L_C_D_0_0" class="edge-thickness-normal edge-pattern-solid edge-thickness-normal edge-pattern-solid flowchart-link" style=";" data-edge="true" data-et="edge" data-id="L_C_D_0_0" data-points="W3sieCI6MTkyLjQxNjY2NjY2NjY2NjY2LCJ5IjozMTkuNzQ5OTk5OTk5OTk5OX0seyJ4IjoxODQuMzMzMzMzMzMzMzMzMzEsInkiOjM0Mn0seyJ4IjoxODQuMzMzMzMzMzMzMzMzMzEsInkiOjQxOC41fSx7IngiOjEzMy4zMzMzMzMzMzMzMzMzMSwieSI6NDE4LjV9LHsieCI6MTMzLjMzMzMzMzMzMzMzMzMxLCJ5Ijo0MzZ9XQ==" data-look="classic" marker-end="url(#my-svg_flowchart-elk-pointEnd)"/><path d="M72.667,436L72.667,428.167C72.667,420.333,72.667,404.667,72.667,353.5C72.667,302.333,72.667,215.667,72.667,172.333L72.667,129" id="my-svg-L_D_B_0_0" class="edge-thickness-normal edge-pattern-dotted edge-thickness-normal edge-pattern-solid flowchart-link" style=";" data-edge="true" data-et="edge" data-id="L_D_B_0_0" data-points="W3sieCI6NzIuNjY2NjY2NjY2NjY2NjYsInkiOjQzNn0seyJ4Ijo3Mi42NjY2NjY2NjY2NjY2NiwieSI6Mzg5fSx7IngiOjcyLjY2NjY2NjY2NjY2NjY2LCJ5IjoxMjV9XQ==" data-look="classic" marker-end="url(#my-svg_flowchart-elk-pointEnd)"/><path d="M237.917,319.75L239.097,323.458C240.278,327.167,242.639,334.583,243.819,340.375C245,346.167,245,350.333,245.362,352.888C245.724,355.443,246.448,356.386,247.281,357.219C248.114,358.052,249.057,358.776,258.445,359.138C267.833,359.5,285.667,359.5,295.055,359.862C304.443,360.224,305.386,360.948,306.219,361.781C307.052,362.614,307.776,363.557,308.138,375.279C308.5,387,308.5,409.5,308.5,420.75L308.5,432" id="my-svg-L_C_E_0_0" class="edge-thickness-normal edge-pattern-solid edge-thickness-normal edge-pattern-solid flowchart-link" style=";" data-edge="true" data-et="edge" data-id="L_C_E_0_0" data-points="W3sieCI6MjM3LjkxNjY2NjY2NjY2NjY5LCJ5IjozMTkuNzQ5OTk5OTk5OTk5OTR9LHsieCI6MjQ1LCJ5IjozNDJ9LHsieCI6MjQ1LCJ5IjozNTkuNX0seyJ4IjozMDguNSwieSI6MzU5LjV9LHsieCI6MzA4LjUsInkiOjQzNn1d" data-look="classic" marker-end="url(#my-svg_flowchart-elk-pointEnd)"/></g><g class="edgeLabels"><g class="edgeLabel"><g class="label" data-id="L_A_B_0_0" transform="translate(0, 0)"><foreignObject width="0" height="0"><div xmlns="http://www.w3.org/1999/xhtml" class="labelBkg" style="display: table-cell; white-space: nowrap; line-height: 1.5; max-width: 200px; text-align: center;"><span class="edgeLabel"></span></div></foreignObject></g></g><g class="edgeLabel"><g class="label" data-id="L_B_C_0_0" transform="translate(0, 0)"><foreignObject width="0" height="0"><div xmlns="http://www.w3.org/1999/xhtml" class="labelBkg" style="display: table-cell; white-space: nowrap; line-height: 1.5; max-width: 200px; text-align: center;"><span class="edgeLabel"></span></div></foreignObject></g></g><g class="edgeLabel" transform="translate(184.33333333333331, 389)"><g class="label" data-id="L_C_D_0_0" transform="translate(-24, -12)"><foreignObject width="48" height="24"><div xmlns="http://www.w3.org/1999/xhtml" class="labelBkg" style="display: table-cell; white-space: nowrap; line-height: 1.5; max-width: 200px; text-align: center;"><span class="edgeLabel"><p>不支持</p></span></div></foreignObject></g></g><g class="edgeLabel" transform="translate(72.66666666666666, 251)"><g class="label" data-id="L_D_B_0_0" transform="translate(-16, -12)"><foreignObject width="32" height="24"><div xmlns="http://www.w3.org/1999/xhtml" class="labelBkg" style="display: table-cell; white-space: nowrap; line-height: 1.5; max-width: 200px; text-align: center;"><span class="edgeLabel"><p>返回</p></span></div></foreignObject></g></g><g class="edgeLabel" transform="translate(308.5, 389)"><g class="label" data-id="L_C_E_0_0" transform="translate(-16, -12)"><foreignObject width="32" height="24"><div xmlns="http://www.w3.org/1999/xhtml" class="labelBkg" style="display: table-cell; white-space: nowrap; line-height: 1.5; max-width: 200px; text-align: center;"><span class="edgeLabel"><p>支持</p></span></div></foreignObject></g></g></g></svg>